<?xml version="1.0" encoding="UTF-8" standalone="no"?>
<svg xmlns:dc="http://purl.org/dc/elements/1.1/" xmlns:cc="http://creativecommons.org/ns#" xmlns:rdf="http://www.w3.org/1999/02/22-rdf-syntax-ns#" xmlns:svg="http://www.w3.org/2000/svg" xmlns="http://www.w3.org/2000/svg" xmlns:sodipodi="http://sodipodi.sourceforge.net/DTD/sodipodi-0.dtd" xmlns:inkscape="http://www.inkscape.org/namespaces/inkscape" width="100" height="100" id="svg7960" version="1.1" inkscape:version="0.48.4 r9939" sodipodi:docname="Discover.svg">
  <defs id="defs7962">
    <clipPath clipPathUnits="userSpaceOnUse" id="clipPath3094-8">
      <path style="font-size:medium;font-style:normal;font-variant:normal;font-weight:normal;font-stretch:normal;text-indent:0;text-align:start;text-decoration:none;line-height:normal;letter-spacing:normal;word-spacing:normal;text-transform:none;direction:ltr;block-progression:tb;writing-mode:lr-tb;text-anchor:start;baseline-shift:baseline;color:#000000;fill:#ee0028;fill-opacity:1;stroke:none;stroke-width:1px;marker:none;visibility:visible;display:inline;overflow:visible;enable-background:accumulate;font-family:Sans;-inkscape-font-specification:Sans" d="m 1475.7812,430.15625 0,1 7.4688,0 0,-1 -7.4688,0 z m -1.6562,2.53125 0,1 10.7812,0 0,-1 -10.7812,0 z m -0.625,2.5 0,1 12.0625,0 0,-1 -12.0625,0 z m 0.625,2.53125 0,1 10.7812,0 0,-1 -10.7812,0 z m 0,2.53125 0,1 10.7812,0 0,-1 -10.7812,0 z" id="path3096-8" inkscape:connector-curvature="0"/>
    </clipPath>
    <clipPath clipPathUnits="userSpaceOnUse" id="clipPath3094-8-2">
      <path style="font-size:medium;font-style:normal;font-variant:normal;font-weight:normal;font-stretch:normal;text-indent:0;text-align:start;text-decoration:none;line-height:normal;letter-spacing:normal;word-spacing:normal;text-transform:none;direction:ltr;block-progression:tb;writing-mode:lr-tb;text-anchor:start;baseline-shift:baseline;color:#000000;fill:#ee0028;fill-opacity:1;stroke:none;stroke-width:1px;marker:none;visibility:visible;display:inline;overflow:visible;enable-background:accumulate;font-family:Sans;-inkscape-font-specification:Sans" d="m 1475.7812,430.15625 0,1 7.4688,0 0,-1 -7.4688,0 z m -1.6562,2.53125 0,1 10.7812,0 0,-1 -10.7812,0 z m -0.625,2.5 0,1 12.0625,0 0,-1 -12.0625,0 z m 0.625,2.53125 0,1 10.7812,0 0,-1 -10.7812,0 z m 0,2.53125 0,1 10.7812,0 0,-1 -10.7812,0 z" id="path3096-8-4" inkscape:connector-curvature="0"/>
    </clipPath>
    <clipPath clipPathUnits="userSpaceOnUse" id="clipPath3094-8-2-4">
      <path style="font-size:medium;font-style:normal;font-variant:normal;font-weight:normal;font-stretch:normal;text-indent:0;text-align:start;text-decoration:none;line-height:normal;letter-spacing:normal;word-spacing:normal;text-transform:none;direction:ltr;block-progression:tb;writing-mode:lr-tb;text-anchor:start;baseline-shift:baseline;color:#000000;fill:#ee0028;fill-opacity:1;stroke:none;stroke-width:1px;marker:none;visibility:visible;display:inline;overflow:visible;enable-background:accumulate;font-family:Sans;-inkscape-font-specification:Sans" d="m 1475.7812,430.15625 0,1 7.4688,0 0,-1 -7.4688,0 z m -1.6562,2.53125 0,1 10.7812,0 0,-1 -10.7812,0 z m -0.625,2.5 0,1 12.0625,0 0,-1 -12.0625,0 z m 0.625,2.53125 0,1 10.7812,0 0,-1 -10.7812,0 z m 0,2.53125 0,1 10.7812,0 0,-1 -10.7812,0 z" id="path3096-8-4-0" inkscape:connector-curvature="0"/>
    </clipPath>
    <clipPath clipPathUnits="userSpaceOnUse" id="clipPath3094-8-7">
      <path style="font-size:medium;font-style:normal;font-variant:normal;font-weight:normal;font-stretch:normal;text-indent:0;text-align:start;text-decoration:none;line-height:normal;letter-spacing:normal;word-spacing:normal;text-transform:none;direction:ltr;block-progression:tb;writing-mode:lr-tb;text-anchor:start;baseline-shift:baseline;color:#000000;fill:#ee0028;fill-opacity:1;stroke:none;stroke-width:1px;marker:none;visibility:visible;display:inline;overflow:visible;enable-background:accumulate;font-family:Sans;-inkscape-font-specification:Sans" d="m 1475.7812,430.15625 0,1 7.4688,0 0,-1 -7.4688,0 z m -1.6562,2.53125 0,1 10.7812,0 0,-1 -10.7812,0 z m -0.625,2.5 0,1 12.0625,0 0,-1 -12.0625,0 z m 0.625,2.53125 0,1 10.7812,0 0,-1 -10.7812,0 z m 0,2.53125 0,1 10.7812,0 0,-1 -10.7812,0 z" id="path3096-8-6" inkscape:connector-curvature="0"/>
    </clipPath>
  </defs>
  <sodipodi:namedview id="base" pagecolor="#ffffff" bordercolor="#666666" borderopacity="1.0" inkscape:pageopacity="0.0" inkscape:pageshadow="2" inkscape:zoom="1.979899" inkscape:cx="120.66649" inkscape:cy="91.541357" inkscape:document-units="px" inkscape:current-layer="text3798-1" showgrid="false" inkscape:window-width="667" inkscape:window-height="689" inkscape:window-x="683" inkscape:window-y="0" inkscape:window-maximized="0"/>
  
  <g inkscape:label="Layer 1" inkscape:groupmode="layer" id="layer1" transform="translate(0,-952.36218)">
    <g id="g3227" transform="translate(155.15304,570.33446)">
      <rect rx="3.5986683" ry="3.5986683" y="413.18326" x="-136.75763" height="40.714283" width="63.214283" id="rect3830" style="fill:#f9f9f9;fill-opacity:1;fill-rule:evenodd;stroke:#000000;stroke-width:0.80000001;stroke-linecap:round;stroke-linejoin:round;stroke-miterlimit:4;stroke-opacity:1;stroke-dasharray:none;stroke-dashoffset:0"/>
      <g transform="scale(0.91734223,1.0901057)" style="font-size:11.88609219px;font-style:normal;font-weight:normal;line-height:125%;letter-spacing:0px;word-spacing:0px;fill:#1a1a1a;fill-opacity:1;stroke:none;font-family:Sans;-inkscape-font-specification:Sans Bold" id="text3798-1">
        <path d="m -144.80555,393.74386 3.13983,0 c 0.70806,1e-5 1.24781,0.0542 1.61925,0.16251 0.49912,0.14703 0.92666,0.4082 1.28263,0.7835 0.35596,0.37532 0.6268,0.83478 0.81253,1.37839 0.18571,0.54363 0.27857,1.21396 0.27858,2.01101 -1e-5,0.70032 -0.0871,1.30391 -0.26117,1.81077 -0.21281,0.61907 -0.51654,1.12012 -0.91119,1.50317 -0.29793,0.29019 -0.70033,0.51654 -1.20718,0.67904 -0.37919,0.11994 -0.88605,0.17992 -1.52059,0.17992 l -3.23269,0 z m 1.71791,1.43933 0,5.63545 1.28263,0 c 0.47978,0 0.82607,-0.0271 1.03888,-0.0813 0.27857,-0.0697 0.50975,-0.18766 0.69354,-0.35403 0.18378,-0.16637 0.33371,-0.44012 0.44979,-0.82123 0.11607,-0.38111 0.17411,-0.90055 0.17412,-1.55831 -1e-5,-0.65776 -0.0581,-1.16268 -0.17412,-1.51478 -0.11608,-0.35209 -0.27858,-0.6268 -0.48751,-0.82414 -0.20894,-0.19732 -0.47398,-0.3308 -0.79512,-0.40046 -0.23989,-0.0542 -0.70999,-0.0812 -1.41031,-0.0812 z" style="font-weight:bold;fill:#1a1a1a;-inkscape-font-specification:Sans Bold" id="path2998"/>
        <path d="m -136.26242,402.25217 0,-8.50831 1.71791,0 0,8.50831 z" style="font-weight:bold;fill:#1a1a1a;-inkscape-font-specification:Sans Bold" id="path3000"/>
        <path d="m -133.34893,399.48378 1.67148,-0.16251 c 0.10059,0.56103 0.30469,0.9731 0.61229,1.2362 0.3076,0.26311 0.72257,0.39466 1.24491,0.39466 0.55329,0 0.97019,-0.11705 1.25071,-0.35113 0.28051,-0.23408 0.42076,-0.50783 0.42077,-0.82123 -10e-6,-0.2012 -0.059,-0.37241 -0.17701,-0.51364 -0.11802,-0.14122 -0.32405,-0.26406 -0.6181,-0.36853 -0.20121,-0.0697 -0.6597,-0.19346 -1.37549,-0.37144 -0.92087,-0.22828 -1.56702,-0.5088 -1.93846,-0.84155 -0.52234,-0.46816 -0.78351,-1.03887 -0.78351,-1.71211 0,-0.43334 0.12285,-0.83863 0.36854,-1.21588 0.24569,-0.37724 0.59972,-0.66453 1.06209,-0.86186 0.46236,-0.19732 1.02049,-0.29598 1.67438,-0.29599 1.06789,10e-6 1.87171,0.23409 2.41146,0.70225 0.53975,0.46818 0.82316,1.09305 0.85025,1.87461 l -1.71791,0.0754 c -0.0735,-0.43721 -0.23119,-0.75158 -0.473,-0.94311 -0.24183,-0.19151 -0.60457,-0.28728 -1.08821,-0.28728 -0.49912,0 -0.88991,0.10254 -1.17236,0.3076 -0.18185,0.13155 -0.27278,0.3076 -0.27277,0.52814 -1e-5,0.2012 0.0851,0.37338 0.25536,0.51653 0.21667,0.18186 0.74288,0.37145 1.57862,0.56877 0.83574,0.19733 1.45384,0.40143 1.8543,0.6123 0.40046,0.21087 0.71386,0.49912 0.94021,0.86476 0.22634,0.36564 0.33951,0.81736 0.33952,1.35517 -1e-5,0.48752 -0.13543,0.94408 -0.40626,1.36969 -0.27085,0.42561 -0.6539,0.74191 -1.14914,0.94891 -0.49526,0.207 -1.1124,0.3105 -1.8514,0.3105 -1.07563,0 -1.9017,-0.24859 -2.47821,-0.74578 -0.5765,-0.49719 -0.92086,-1.22169 -1.03306,-2.1735 z" style="font-weight:bold;fill:#1a1a1a;-inkscape-font-specification:Sans Bold" id="path3002"/>
        <path d="m -119.53019,399.12394 1.66568,0.52814 c -0.25538,0.92861 -0.68002,1.61829 -1.27393,2.06904 -0.59392,0.45076 -1.34744,0.67614 -2.26056,0.67614 -1.1298,0 -2.0584,-0.38595 -2.7858,-1.15785 -0.72741,-0.7719 -1.09111,-1.82721 -1.09111,-3.16595 0,-1.41611 0.36564,-2.51592 1.09691,-3.29943 0.73127,-0.7835 1.69276,-1.17525 2.88447,-1.17526 1.0408,10e-6 1.88621,0.3076 2.53624,0.92279 0.38691,0.36371 0.67709,0.88605 0.87056,1.56702 l -1.7005,0.40626 c -0.1006,-0.44108 -0.31051,-0.7893 -0.62971,-1.04468 -0.31921,-0.25535 -0.70709,-0.38304 -1.16365,-0.38304 -0.63068,0 -1.14238,0.22635 -1.53509,0.67904 -0.39273,0.4527 -0.58909,1.1859 -0.58908,2.19962 -1e-5,1.07563 0.19345,1.84173 0.58037,2.29829 0.38691,0.45656 0.88991,0.68484 1.50898,0.68484 0.45655,0 0.84927,-0.14509 1.17816,-0.43528 0.32887,-0.29019 0.56489,-0.74675 0.70806,-1.36969 z" style="font-weight:bold;fill:#1a1a1a;-inkscape-font-specification:Sans Bold" id="path3004"/>
        <path d="m -116.73278,398.05025 c 0,-0.86669 0.12961,-1.5941 0.38885,-2.18221 0.19346,-0.43335 0.45753,-0.8222 0.79221,-1.16656 0.33468,-0.34435 0.70129,-0.59971 1.09981,-0.7661 0.53008,-0.2244 1.1414,-0.3366 1.83399,-0.33661 1.25361,10e-6 2.25669,0.38886 3.00925,1.16655 0.75254,0.77771 1.12882,1.85914 1.12883,3.2443 -1e-5,1.37356 -0.37339,2.44822 -1.12013,3.22399 -0.74675,0.77577 -1.745,1.16365 -2.99473,1.16365 -1.26523,0 -2.27121,-0.38595 -3.01796,-1.15785 -0.74675,-0.7719 -1.12012,-1.83495 -1.12012,-3.18916 z m 1.77014,-0.058 c 0,0.96343 0.22248,1.69373 0.66743,2.19092 0.44496,0.49719 1.00985,0.74578 1.6947,0.74578 0.68484,0 1.24684,-0.24666 1.68599,-0.73998 0.43915,-0.49332 0.65872,-1.23329 0.65873,-2.21994 -10e-6,-0.97502 -0.21378,-1.70242 -0.64132,-2.18221 -0.42755,-0.47977 -0.99535,-0.71966 -1.7034,-0.71966 -0.70806,0 -1.27876,0.24279 -1.71211,0.72837 -0.43335,0.48559 -0.65002,1.21782 -0.65002,2.19672 z" style="font-weight:bold;fill:#1a1a1a;-inkscape-font-specification:Sans Bold" id="path3006"/>
        <path d="m -104.97437,402.25217 -3.04117,-8.50831 1.863,0 2.1532,6.29708 2.08354,-6.29708 1.82238,0 -3.04697,8.50831 z" style="font-weight:bold;fill:#1a1a1a;-inkscape-font-specification:Sans Bold" id="path3008"/>
        <path d="m -99.205438,402.25217 0,-8.50831 6.308682,0 0,1.43933 -4.590771,0 0,1.88622 4.271565,0 0,1.43353 -4.271565,0 0,2.3157 4.753276,0 0,1.43353 z" style="font-weight:bold;fill:#1a1a1a;-inkscape-font-specification:Sans Bold" id="path3010"/>
        <path d="m -91.260098,402.25217 0,-8.50831 3.61574,0 c 0.90925,1e-5 1.56991,0.0764 1.981983,0.22925 0.41206,0.15284 0.741906,0.42465 0.98954,0.81543 0.24762,0.39079 0.371433,0.83768 0.371441,1.34066 -8e-6,0.63842 -0.187663,1.1656 -0.562965,1.58153 -0.375316,0.41594 -0.936345,0.67807 -1.683089,0.78641 0.371435,0.21667 0.678066,0.45463 0.919896,0.71386 0.241816,0.25924 0.567793,0.71967 0.977932,1.38129 l 1.038873,1.65988 -2.05453,0 -1.242004,-1.8514 c -0.44109,-0.66163 -0.742885,-1.07853 -0.905386,-1.25071 -0.162509,-0.17218 -0.334687,-0.29019 -0.516534,-0.35403 -0.181855,-0.0638 -0.470107,-0.0958 -0.864759,-0.0958 l -0.348226,0 0,3.5519 z m 1.717912,-4.90998 1.271023,0 c 0.824128,0 1.338728,-0.0348 1.543799,-0.10447 0.20506,-0.0696 0.365631,-0.18958 0.481712,-0.35983 0.116069,-0.17024 0.174106,-0.38304 0.174112,-0.63841 -6e-6,-0.28632 -0.07642,-0.5175 -0.229248,-0.69355 -0.152838,-0.17604 -0.368544,-0.28728 -0.647119,-0.33372 -0.139295,-0.0193 -0.557165,-0.029 -1.253611,-0.029 l -1.340668,0 z" style="font-weight:bold;fill:#1a1a1a;-inkscape-font-specification:Sans Bold" id="path3012"/>
      </g>
      <path transform="matrix(1.1048951,0,0,1.1048951,10.70329,-45.555099)" d="m -98.426738,433.991 c 0,2.49308 -2.021042,4.51412 -4.514122,4.51412 -2.49308,0 -4.51412,-2.02104 -4.51412,-4.51412 0,-2.49308 2.02104,-4.51412 4.51412,-4.51412 2.49308,0 4.514122,2.02104 4.514122,4.51412 z" sodipodi:ry="4.5141191" sodipodi:rx="4.5141191" sodipodi:cy="433.991" sodipodi:cx="-102.94086" id="path3880" style="fill:#fc8100;fill-opacity:1;fill-rule:evenodd;stroke:none" sodipodi:type="arc"/>
      <path sodipodi:nodetypes="cccssc" inkscape:connector-curvature="0" id="path3882" d="m -73.944196,438.87947 -45.562494,13.78125 -1.59375,0.84375 43.77678,0 c 1.993662,0 3.379464,-1.30992 3.379464,-3.30358 z" style="fill:#fc8100;fill-opacity:1;stroke:none"/>
    </g>
  </g>

	
	
	<metadata>
		<rdf:RDF xmlns:rdf="http://www.w3.org/1999/02/22-rdf-syntax-ns#" xmlns:rdfs="http://www.w3.org/2000/01/rdf-schema#" xmlns:dc="http://purl.org/dc/elements/1.1/">
			<rdf:Description about="https://iconscout.com/legal#licenses" dc:title="Discover, Credit, Debit, Card, Bank, Transaction" dc:description="Discover, Credit, Debit, Card, Bank, Transaction" dc:publisher="Iconscout" dc:date="2016-12-14" dc:format="image/svg+xml" dc:language="en">
				<dc:creator>
					<rdf:Bag>
						<rdf:li>Dalpat Prajapati</rdf:li>
					</rdf:Bag>
				</dc:creator>
			</rdf:Description>
		</rdf:RDF>
    </metadata></svg>
